<svg width="432" height="289" viewBox="0 0 328 218" fill="none" xmlns="http://www.w3.org/2000/svg">
<path d="M252.478 108.409C252.478 109.638 251.482 110.638 250.257 110.638C249.032 110.638 248.035 109.638 248.035 108.409C248.035 107.18 249.032 106.18 250.257 106.18C251.482 106.179 252.478 107.18 252.478 108.409ZM251.377 108.409C251.377 107.789 250.875 107.284 250.257 107.284C249.639 107.284 249.136 107.789 249.136 108.409C249.136 109.029 249.639 109.534 250.257 109.534C250.875 109.534 251.377 109.029 251.377 108.409Z" fill="#91A8F6"/>
<path d="M289.829 26.7754H277.245C276.941 26.7754 276.694 27.0228 276.694 27.328C276.694 27.6331 276.941 27.8805 277.245 27.8805H289.829C290.133 27.8805 290.38 27.6331 290.38 27.328C290.38 27.0228 290.133 26.7754 289.829 26.7754Z" fill="#91A8F6"/>
<path d="M273.24 26.7734H270.781C270.477 26.7734 270.23 27.0208 270.23 27.326C270.23 27.6312 270.477 27.8786 270.781 27.8786H273.24C273.544 27.8786 273.791 27.6312 273.791 27.326C273.791 27.0208 273.544 26.7734 273.24 26.7734Z" fill="#91A8F6"/>
<path d="M283.917 31.1756C283.917 31.4808 283.671 31.7282 283.367 31.7282H281.793C281.489 31.7282 281.242 31.4808 281.242 31.1756C281.242 30.8704 281.489 30.623 281.793 30.623H283.366C283.671 30.623 283.917 30.8704 283.917 31.1756ZM279.591 31.1756C279.591 31.4808 279.344 31.7282 279.04 31.7282H276.288C275.984 31.7282 275.737 31.4808 275.737 31.1756C275.737 30.8704 275.984 30.623 276.288 30.623H279.04C279.344 30.623 279.591 30.8704 279.591 31.1756ZM274.085 31.1756C274.085 31.4808 273.839 31.7282 273.535 31.7282H270.783C270.479 31.7282 270.232 31.4808 270.232 31.1756C270.232 30.8704 270.479 30.623 270.783 30.623H273.535C273.839 30.623 274.085 30.8704 274.085 31.1756Z" fill="#91A8F6"/>
<path d="M85.6649 63.707C85.3614 63.707 85.1143 63.9544 85.1143 64.2596V65.541C85.1143 65.8462 85.3614 66.0936 85.6649 66.0936C85.9691 66.0936 86.2156 65.8462 86.2156 65.541V64.2596C86.2156 63.9538 85.9691 63.707 85.6649 63.707Z" fill="#91A8F6"/>
<path d="M84.2241 62.4199H82.9466C82.643 62.4199 82.3965 62.6673 82.3965 62.9725C82.3965 63.2777 82.643 63.5251 82.9466 63.5251H84.2241C84.5277 63.5251 84.7742 63.2777 84.7742 62.9725C84.7742 62.6673 84.5277 62.4199 84.2241 62.4199Z" fill="#91A8F6"/>
<path d="M85.6649 59.7656C85.3614 59.7656 85.1143 60.013 85.1143 60.3182V61.599C85.1143 61.9037 85.3614 62.1516 85.6649 62.1516C85.9691 62.1516 86.2156 61.9042 86.2156 61.599V60.3182C86.2156 60.0124 85.9691 59.7656 85.6649 59.7656Z" fill="#91A8F6"/>
<path d="M88.3833 62.332H87.1057C86.8022 62.332 86.5557 62.5794 86.5557 62.8846C86.5557 63.1898 86.8022 63.4372 87.1057 63.4372H88.3833C88.6874 63.4372 88.934 63.1898 88.934 62.8846C88.934 62.5794 88.6874 62.332 88.3833 62.332Z" fill="#91A8F6"/>
<path d="M224.137 27.8926C223.832 27.8926 223.586 28.14 223.586 28.4451V29.7266C223.586 30.0318 223.832 30.2791 224.137 30.2791C224.44 30.2791 224.687 30.0318 224.687 29.7266V28.4451C224.687 28.14 224.441 27.8926 224.137 27.8926Z" fill="#91A8F6"/>
<path d="M222.695 26.6055H221.418C221.114 26.6055 220.867 26.8529 220.867 27.158C220.867 27.4632 221.114 27.7106 221.418 27.7106H222.695C222.999 27.7106 223.245 27.4632 223.245 27.158C223.245 26.8529 223 26.6055 222.695 26.6055Z" fill="#91A8F6"/>
<path d="M224.137 23.9512C223.832 23.9512 223.586 24.1986 223.586 24.5037V25.7846C223.586 26.0898 223.832 26.3372 224.137 26.3372C224.44 26.3372 224.687 26.0898 224.687 25.7846V24.5037C224.687 24.1986 224.441 23.9512 224.137 23.9512Z" fill="#91A8F6"/>
<path d="M226.855 26.5176H225.577C225.273 26.5176 225.026 26.765 225.026 27.0701C225.026 27.3753 225.273 27.6227 225.577 27.6227H226.855C227.158 27.6227 227.405 27.3753 227.405 27.0701C227.405 26.765 227.158 26.5176 226.855 26.5176Z" fill="#91A8F6"/>
<path d="M172.811 0.451172H160.227C159.923 0.451172 159.677 0.698556 159.677 1.00374C159.677 1.30892 159.923 1.5563 160.227 1.5563H172.811C173.115 1.5563 173.361 1.30892 173.361 1.00374C173.361 0.698556 173.115 0.451172 172.811 0.451172Z" fill="#91A8F6"/>
<path d="M156.222 0.449219H153.763C153.458 0.449219 153.212 0.696604 153.212 1.00179C153.212 1.30697 153.458 1.55436 153.763 1.55436H156.222C156.526 1.55436 156.772 1.30697 156.772 1.00179C156.772 0.696604 156.526 0.449219 156.222 0.449219Z" fill="#91A8F6"/>
<path d="M166.899 4.8514C166.899 5.15658 166.651 5.40396 166.348 5.40396H164.774C164.47 5.40396 164.224 5.15658 164.224 4.8514C164.224 4.54621 164.47 4.29883 164.774 4.29883H166.348C166.652 4.29883 166.899 4.54621 166.899 4.8514ZM162.572 4.8514C162.572 5.15658 162.326 5.40396 162.022 5.40396H159.269C158.966 5.40396 158.719 5.15658 158.719 4.8514C158.719 4.54621 158.966 4.29883 159.269 4.29883H162.022C162.326 4.29883 162.572 4.54621 162.572 4.8514ZM157.067 4.8514C157.067 5.15658 156.82 5.40396 156.517 5.40396H153.765C153.46 5.40396 153.214 5.15658 153.214 4.8514C153.214 4.54621 153.46 4.29883 153.765 4.29883H156.517C156.82 4.29883 157.067 4.54621 157.067 4.8514Z" fill="#91A8F6"/>
<path d="M310.017 60.2765C311.091 60.2765 311.961 59.4031 311.961 58.3258C311.961 57.2484 311.091 56.375 310.017 56.375C308.944 56.375 308.073 57.2484 308.073 58.3258C308.073 59.4031 308.944 60.2765 310.017 60.2765Z" fill="#91A8F6"/>
<path d="M53.2362 153.903H65.8201C66.1236 153.903 66.3707 153.656 66.3707 153.351C66.3707 153.046 66.1236 152.799 65.8201 152.799H53.2362C52.9321 152.799 52.6855 153.046 52.6855 153.351C52.6855 153.656 52.9321 153.903 53.2362 153.903Z" fill="#91A8F6"/>
<path d="M46.7718 153.907H49.2313C49.5348 153.907 49.7814 153.66 49.7814 153.355C49.7814 153.05 49.5348 152.803 49.2313 152.803H46.7718C46.4682 152.803 46.2217 153.05 46.2217 153.355C46.2217 153.66 46.4682 153.907 46.7718 153.907Z" fill="#91A8F6"/>
<path d="M291.013 162.889C291.013 162.889 291.764 168.27 285.501 168.146C285.501 168.146 290.881 168.201 290.74 173.25C290.74 173.25 291.224 169.278 296.161 168.391C296.16 168.39 291.988 169.351 291.013 162.889Z" fill="#91A8F6"/>
<path d="M320.918 86.9902C320.918 86.9902 321.669 92.3714 315.405 92.2471C315.405 92.2471 320.786 92.3021 320.645 97.3515C320.645 97.3515 321.129 93.3794 326.066 92.4922C326.065 92.4922 321.893 93.4523 320.918 86.9902Z" fill="#91A8F6"/>
<path d="M122.252 14.1367C122.252 14.1367 123.004 19.5173 116.74 19.3931C116.74 19.3931 122.121 19.4485 121.98 24.4974C121.98 24.4974 122.463 20.5253 127.401 19.6381C127.401 19.6381 123.228 20.5988 122.252 14.1367Z" fill="#91A8F6"/>
<path d="M68.3321 28.998C68.3321 28.998 69.0837 34.3786 62.8203 34.2544C62.8203 34.2544 68.2007 34.3099 68.0596 39.3593C68.0596 39.3593 68.5435 35.3873 73.4809 34.4995C73.4809 34.4995 69.3084 35.4601 68.3321 28.998Z" fill="#91A8F6"/>
<path d="M101.014 5.99805C101.014 5.99805 101.275 7.87366 99.0928 7.83031C99.0928 7.83031 100.968 7.84938 100.918 9.60997C100.918 9.60997 101.087 8.22508 102.807 7.91528C102.808 7.91528 101.354 8.24994 101.014 5.99805Z" fill="#91A8F6"/>
<path d="M199.102 70.6582C199.102 70.6582 199.363 72.5338 197.181 72.4905C197.181 72.4905 199.056 72.5095 199.006 74.2695C199.006 74.2695 199.175 72.8846 200.895 72.5754C200.896 72.5754 199.441 72.9101 199.102 70.6582Z" fill="#91A8F6"/>
<path d="M17.3604 102.717C17.3604 102.717 17.6219 104.592 15.4395 104.549C15.4395 104.549 17.3149 104.568 17.2648 106.329C17.2648 106.329 17.4336 104.944 19.1541 104.635C19.1541 104.635 17.7002 104.969 17.3604 102.717Z" fill="#91A8F6"/>
<path d="M180.453 153.281C180.453 153.281 180.714 155.156 178.531 155.113C178.531 155.113 180.407 155.133 180.357 156.893C180.357 156.893 180.526 155.508 182.246 155.198C182.246 155.198 180.792 155.533 180.453 153.281Z" fill="#91A8F6"/>
<path d="M106.238 123.05H94.0196C92.4564 123.05 91.1846 121.775 91.1846 120.206C91.1846 118.668 92.4074 117.411 93.9292 117.363C93.969 114.969 95.9222 113.035 98.316 113.035C99.8021 113.035 101.184 113.794 101.99 115.034C103.637 114.798 105.107 115.837 105.524 117.361H106.238C107.802 117.361 109.073 118.638 109.073 120.206C109.073 121.775 107.802 123.05 106.238 123.05ZM94.0196 118.203C92.9189 118.203 92.0232 119.102 92.0232 120.206C92.0232 121.31 92.9189 122.209 94.0196 122.209H106.238C107.339 122.209 108.234 121.31 108.234 120.206C108.234 119.102 107.339 118.203 106.238 118.203H104.828L104.772 117.848C104.56 116.509 103.293 115.572 101.88 115.91L101.571 115.985L101.416 115.707C100.788 114.578 99.6005 113.877 98.3154 113.877C96.3588 113.877 94.7667 115.475 94.7667 117.438C94.7667 117.542 94.7742 117.644 94.7823 117.746L94.8209 118.203H94.0196Z" fill="#91A8F6"/>
<path d="M324.219 19.2845H312C310.437 19.2845 309.165 18.0083 309.165 16.4402C309.165 14.9021 310.388 13.645 311.91 13.597C311.95 11.2041 313.903 9.26953 316.296 9.26953C317.783 9.26953 319.164 10.0279 319.971 11.2683C321.616 11.0324 323.088 12.0717 323.505 13.5959H324.219C325.782 13.5959 327.054 14.8721 327.054 16.4408C327.054 18.0095 325.782 19.2845 324.219 19.2845ZM312 14.4374C310.899 14.4374 310.004 15.3362 310.004 16.4402C310.004 17.5442 310.899 18.443 312 18.443H324.219C325.32 18.443 326.215 17.5448 326.215 16.4402C326.215 15.3356 325.32 14.4374 324.219 14.4374H322.809L322.753 14.0825C322.54 12.7433 321.273 11.8075 319.861 12.1451L319.552 12.2191L319.397 11.941C318.769 10.8122 317.582 10.1111 316.296 10.1111C314.34 10.1111 312.748 11.7087 312.748 13.6727C312.748 13.7768 312.755 13.8791 312.763 13.9808L312.802 14.438H312V14.4374Z" fill="#91A8F6"/>
<path d="M135.022 50.5912H122.804C121.241 50.5912 119.969 49.315 119.969 47.7469C119.969 46.2082 121.192 44.9516 122.713 44.9037C122.754 42.5107 124.706 40.5762 127.1 40.5762C128.586 40.5762 129.968 41.3345 130.774 42.5749C132.42 42.3391 133.891 43.3783 134.308 44.9025H135.022C136.586 44.9025 137.858 46.1787 137.858 47.7469C137.858 49.315 136.586 50.5912 135.022 50.5912ZM122.804 45.7441C121.703 45.7441 120.807 46.6429 120.807 47.7469C120.807 48.8508 121.703 49.7496 122.804 49.7496H135.022C136.123 49.7496 137.018 48.8514 137.018 47.7469C137.018 46.6423 136.123 45.7441 135.022 45.7441H133.612L133.556 45.3892C133.344 44.05 132.076 43.1142 130.664 43.4517L130.355 43.5257L130.2 43.2477C129.572 42.1183 128.385 41.4172 127.1 41.4172C125.143 41.4172 123.551 43.0148 123.551 44.9788C123.551 45.0828 123.558 45.1852 123.566 45.2869L123.605 45.7441H122.804Z" fill="#91A8F6"/>
<path d="M173.292 207.774C168.044 209.264 162.585 206.203 161.101 200.937L153.265 173.149C151.78 167.883 154.831 162.405 160.079 160.916C165.326 159.426 170.785 162.487 172.269 167.753L180.105 195.541C181.589 200.807 178.539 206.284 173.292 207.774Z" fill="#93C7EA"/>
<path d="M162.109 207.54C158.215 203.707 158.155 197.433 161.973 193.526L182.125 172.908C185.944 169.001 192.196 168.94 196.09 172.772C199.984 176.604 200.044 182.879 196.225 186.786L176.074 207.404C172.255 211.31 166.003 211.372 162.109 207.54Z" fill="#93C7EA"/>
<path d="M195.008 181.438C199.787 181.438 203.661 177.55 203.661 172.755C203.661 167.96 199.787 164.072 195.008 164.072C190.229 164.072 186.355 167.96 186.355 172.755C186.355 177.55 190.229 181.438 195.008 181.438Z" fill="#FF8383"/>
<path d="M189.212 171.503C188.006 171.814 186.776 171.086 186.466 169.876L185.699 166.888C185.388 165.678 186.114 164.444 187.32 164.133C188.526 163.821 189.755 164.549 190.066 165.759L190.833 168.747C191.144 169.957 190.418 171.191 189.212 171.503Z" fill="#FF8383"/>
<path d="M197.891 161.216L194.825 169.004C194.351 170.211 192.991 170.803 191.789 170.326C190.586 169.849 189.997 168.485 190.472 167.279L193.537 159.49C194.012 158.284 195.372 157.692 196.575 158.169C197.777 158.645 198.366 160.009 197.891 161.216Z" fill="#FF8383"/>
<path d="M203.294 162.848L199.592 170.353C199.019 171.515 197.615 171.991 196.456 171.416C195.297 170.84 194.823 169.431 195.397 168.269L199.099 160.764C199.673 159.602 201.077 159.126 202.235 159.701C203.394 160.277 203.868 161.686 203.294 162.848Z" fill="#FF8383"/>
<path d="M207.314 167.027L202.143 173.6C201.342 174.618 199.87 174.792 198.856 173.988C197.841 173.184 197.667 171.707 198.469 170.69L203.639 164.116C204.44 163.098 205.912 162.924 206.927 163.728C207.941 164.531 208.115 166.008 207.314 167.027Z" fill="#FF8383"/>
<path d="M151.913 151.173L148.555 151.04C146.299 150.951 144.542 149.044 144.631 146.78L145.333 128.875L156.861 129.33L156.159 147.235C156.069 149.499 154.169 151.262 151.913 151.173Z" fill="#FF8383"/>
<path d="M156.86 128.701L145.332 128.246L145.154 132.789C144.979 137.242 148.591 141.149 153.019 140.826C153.295 140.806 153.571 140.771 153.848 140.722C154.772 140.556 155.634 140.227 156.426 139.775L156.86 128.701Z" fill="#D15E79"/>
<path d="M162.649 110.98C165.626 116.413 162.18 123.387 154.95 126.557C147.72 129.728 139.446 127.893 136.468 122.46C133.49 117.027 136.937 110.053 144.166 106.882C151.396 103.712 159.671 105.546 162.649 110.98Z" fill="#1B2A67"/>
<path d="M170.64 112.618C172.616 116.883 168.777 121.931 162.064 123.894C155.352 125.857 148.31 123.992 146.333 119.727C144.358 115.462 148.197 110.414 154.909 108.451C161.622 106.488 168.665 108.354 170.64 112.618Z" fill="#1B2A67"/>
<path d="M159.632 101.973C163.609 104.463 163.14 110.796 158.587 116.119C154.033 121.442 147.118 123.74 143.142 121.25C139.167 118.761 139.634 112.428 144.188 107.104C148.741 101.781 155.656 99.4835 159.632 101.973Z" fill="#1B2A67"/>
<path d="M163.539 125.832C164.673 132.212 161.345 138.147 156.106 139.085C150.867 140.023 145.7 135.61 144.565 129.229L143.672 124.208C142.537 117.827 145.865 111.892 151.103 110.954C156.343 110.015 161.511 114.429 162.645 120.81L163.539 125.832Z" fill="#FF8383"/>
<path d="M152.348 110.195C149.45 107.563 144.407 108.835 141.083 113.038C137.759 117.241 137.414 122.78 140.312 125.412C143.209 128.044 148.253 126.771 151.576 122.569C154.9 118.367 155.246 112.826 152.348 110.195Z" fill="#1B2A67"/>
<path d="M154.258 124.415C154.091 124.415 153.926 124.336 153.823 124.188C153.66 123.948 153.717 123.621 153.956 123.455C154.026 123.408 155.697 122.269 157.469 123.304C157.72 123.452 157.805 123.776 157.658 124.028C157.513 124.281 157.192 124.366 156.938 124.218C155.751 123.524 154.604 124.291 154.554 124.323C154.464 124.386 154.361 124.415 154.258 124.415Z" fill="#86294E"/>
<path d="M163.348 124.416C163.245 124.416 163.142 124.386 163.05 124.323C163 124.29 161.854 123.523 160.666 124.217C160.414 124.365 160.093 124.279 159.946 124.027C159.799 123.775 159.885 123.451 160.135 123.304C161.91 122.262 163.578 123.405 163.648 123.454C163.887 123.62 163.946 123.949 163.78 124.19C163.678 124.337 163.514 124.416 163.348 124.416Z" fill="#86294E"/>
<path d="M156.086 126.366C156.389 126.366 156.635 126.12 156.635 125.815C156.635 125.511 156.389 125.264 156.086 125.264C155.782 125.264 155.536 125.511 155.536 125.815C155.536 126.12 155.782 126.366 156.086 126.366Z" fill="#86294E"/>
<path d="M161.357 126.575C161.661 126.575 161.907 126.329 161.907 126.024C161.907 125.72 161.661 125.473 161.357 125.473C161.054 125.473 160.808 125.72 160.808 126.024C160.808 126.329 161.054 126.575 161.357 126.575Z" fill="#86294E"/>
<path d="M163.187 129.882C163.129 129.882 163.071 129.88 163.012 129.877C161.859 129.833 160.792 129.339 160.007 128.488C159.225 127.638 158.817 126.53 158.863 125.372C158.908 124.215 159.401 123.145 160.248 122.358C161.097 121.573 162.19 121.156 163.353 121.21C164.506 121.254 165.573 121.748 166.357 122.599C167.141 123.449 167.548 124.556 167.503 125.715C167.457 126.872 166.965 127.943 166.117 128.729C165.312 129.477 164.277 129.882 163.187 129.882ZM163.178 121.938C162.272 121.938 161.413 122.276 160.744 122.897C160.04 123.55 159.63 124.439 159.593 125.402C159.555 126.364 159.893 127.284 160.544 127.99C161.195 128.698 162.082 129.108 163.04 129.146C164.007 129.162 164.915 128.845 165.62 128.191C166.325 127.538 166.734 126.649 166.772 125.686C166.809 124.723 166.471 123.804 165.82 123.096C165.168 122.39 164.282 121.98 163.323 121.942C163.275 121.94 163.227 121.938 163.178 121.938Z" fill="#FFD2D4"/>
<path d="M153.9 130.048C153.835 130.048 153.77 130.047 153.705 130.044C151.03 129.937 148.94 127.669 149.045 124.986C149.095 123.685 149.648 122.483 150.6 121.6C151.551 120.716 152.791 120.248 154.086 120.31C155.381 120.36 156.579 120.915 157.46 121.87C158.34 122.826 158.796 124.068 158.745 125.368C158.693 126.669 158.141 127.871 157.189 128.754C156.286 129.593 155.124 130.048 153.9 130.048ZM153.89 121.13C152.873 121.13 151.908 121.508 151.157 122.205C150.366 122.939 149.906 123.938 149.864 125.019C149.777 127.248 151.514 129.133 153.737 129.221C154.802 129.273 155.841 128.883 156.632 128.149C157.424 127.415 157.883 126.417 157.926 125.336C157.968 124.255 157.589 123.223 156.858 122.43C156.126 121.636 155.131 121.174 154.054 121.133C154 121.13 153.945 121.13 153.89 121.13Z" fill="#FFD2D4"/>
<path d="M157.912 125.938L159.698 126.009C159.905 126.017 160.08 125.854 160.088 125.646C160.097 125.438 159.935 125.263 159.728 125.254L157.942 125.184C157.734 125.175 157.559 125.338 157.551 125.546C157.542 125.755 157.704 125.93 157.912 125.938Z" fill="#FFD2D4"/>
<path d="M161.488 128.478C161.437 129.108 160.708 129.682 159.861 129.76C159.013 129.838 158.368 129.391 158.419 128.762C158.47 128.132 159.198 127.558 160.046 127.48C160.893 127.402 161.539 127.849 161.488 128.478Z" fill="#86294E"/>
<path d="M161.128 131.865C161.071 133.326 159.746 134.46 158.169 134.397C156.592 134.335 155.682 132.768 155.739 131.307C157.59 131.141 159.388 131.312 161.128 131.865Z" fill="#86294E"/>
<path d="M158.396 132.779C157.15 132.634 156.381 132.205 156.308 131.265C157.862 131.182 159.381 131.341 160.856 131.772C160.644 132.62 159.618 132.921 158.396 132.779Z" fill="#FFD2D4"/>
<path d="M154.713 134.98L151.613 134.977C150.363 134.977 149.163 134.514 148.234 133.672L146.294 131.916C146.14 131.775 146.127 131.536 146.267 131.383C146.406 131.227 146.644 131.216 146.798 131.355L148.738 133.111C149.528 133.828 150.55 134.222 151.613 134.222L154.713 134.225C154.92 134.225 155.088 134.394 155.088 134.602C155.088 134.812 154.92 134.98 154.713 134.98Z" fill="#201028"/>
<path d="M154.713 135.356H154.712L153.455 135.355C153.039 135.355 152.703 135.015 152.703 134.597C152.704 134.182 153.041 133.844 153.456 133.844H153.457L154.713 133.845C155.129 133.845 155.466 134.185 155.465 134.602C155.464 135.018 155.128 135.356 154.713 135.356Z" fill="#FFD2D4"/>
<path d="M144.618 134.324C148.098 134.324 150.919 131.493 150.919 128.001C150.919 124.509 148.098 121.678 144.618 121.678C141.138 121.678 138.316 124.509 138.316 128.001C138.316 131.493 141.138 134.324 144.618 134.324Z" fill="#445EEA"/>
<path d="M143.477 133.356C146.19 133.463 148.485 131.135 148.602 128.156C148.719 125.178 146.613 122.676 143.899 122.569C141.185 122.462 138.891 124.79 138.774 127.769C138.657 130.747 140.763 133.249 143.477 133.356Z" fill="#91A8F6"/>
<path d="M142.677 130.114C143.61 130.151 144.405 129.203 144.452 127.996C144.499 126.789 143.781 125.781 142.848 125.744C141.915 125.708 141.121 126.656 141.074 127.863C141.026 129.069 141.744 130.077 142.677 130.114Z" fill="#E0EEF7"/>
<path d="M159.843 216.278L129.701 217.131C124.676 216.932 120.763 212.684 120.96 207.641L122.865 157.024C122.968 154.379 124.712 152.081 127.226 151.278L149.698 144.098L167.66 152.736C169.916 153.821 171.313 156.148 171.215 158.656L169.3 207.508C169.102 212.55 164.868 216.477 159.843 216.278Z" fill="#93C7EA"/>
<path d="M171.214 158.656C171.317 163.935 171.256 169.206 171.17 174.477C171.101 179.747 170.914 185.014 170.726 190.281C170.503 195.546 170.277 200.812 169.934 206.071C169.857 207.35 169.793 208.79 169.312 210.099C168.857 211.407 168.127 212.616 167.163 213.589C165.228 215.522 162.473 216.567 159.843 216.279C162.476 216.222 164.997 215.038 166.621 213.088C167.454 212.137 168.062 211.005 168.408 209.806C168.777 208.604 168.766 207.372 168.778 206.026C168.849 200.754 169.035 195.488 169.225 190.221C169.45 184.957 169.676 179.691 170.02 174.431C170.346 169.17 170.697 163.91 171.214 158.656Z" fill="#6EACCE"/>
<path d="M157.947 153.672L141.679 152.62L142.303 142.916C142.38 141.71 143.418 140.796 144.619 140.874L156.534 141.645C157.736 141.723 158.648 142.764 158.571 143.97L157.947 153.672Z" fill="#93C7EA"/>
<path d="M109.482 201.442C104.445 199.342 102.057 193.543 104.15 188.489L115.187 161.819C117.279 156.765 123.058 154.368 128.095 156.467C133.132 158.567 135.52 164.366 133.428 169.42L122.389 196.091C120.298 201.145 114.519 203.54 109.482 201.442Z" fill="#93C7EA"/>
<path d="M128.095 156.467C129.859 157.04 131.467 158.177 132.657 159.682C133.824 161.201 134.57 163.082 134.733 165.034C134.994 166.974 134.372 169.043 133.662 170.712L131.577 175.858C130.146 179.271 128.712 182.684 127.171 186.051L124.854 191.101C124.031 192.763 123.256 194.444 122.391 196.089C122.941 194.314 123.581 192.575 124.173 190.817L126.102 185.606C127.392 182.133 128.789 178.705 130.19 175.279L132.351 170.164C132.721 169.29 133.103 168.518 133.286 167.675C133.49 166.838 133.61 165.971 133.585 165.099C133.536 161.6 131.402 158.159 128.095 156.467Z" fill="#6EACCE"/>
<path d="M155.444 187.465L150.416 187.139C148.531 187.017 147.097 185.379 147.218 183.488L147.364 181.213C147.486 179.322 149.118 177.881 151.003 178.003L156.031 178.329L155.444 187.465ZM150.857 180.264C150.214 180.222 149.658 180.714 149.617 181.359L149.47 183.634C149.429 184.278 149.918 184.838 150.561 184.879L153.337 185.059L153.634 180.444L150.857 180.264Z" fill="#86294E"/>
<path d="M160.334 194.722L155.985 194.441C153.344 194.269 151.341 191.982 151.511 189.332L152.413 175.302C152.513 173.737 166.427 174.638 166.326 176.203L165.424 190.233C165.254 192.883 162.975 194.893 160.334 194.722Z" fill="#D15E79"/>
<path d="M159.156 177.236C162.306 177.44 164.889 177.149 164.926 176.585C164.962 176.022 162.438 175.4 159.288 175.196C156.138 174.992 153.555 175.283 153.518 175.846C153.482 176.41 156.006 177.032 159.156 177.236Z" fill="#86294E"/>
<path d="M104.01 192.533C104.096 187.06 108.586 182.694 114.04 182.781L142.816 183.236C148.269 183.322 152.62 187.828 152.533 193.301C152.448 198.773 147.957 203.139 142.504 203.053L113.728 202.597C108.275 202.511 103.924 198.004 104.01 192.533Z" fill="#93C7EA"/>
<path d="M114.04 182.781C117.735 182.528 121.427 182.44 125.119 182.378C128.812 182.299 132.502 182.338 136.193 182.377L141.727 182.504C143.536 182.517 145.675 182.764 147.344 183.778C149.065 184.705 150.486 186.142 151.412 187.82C152.313 189.517 152.713 191.449 152.534 193.301C152.301 189.583 150.005 186.25 146.825 184.815C146.038 184.445 145.199 184.208 144.352 184.063C143.508 183.897 142.651 183.941 141.705 183.933L136.169 183.885C132.48 183.808 128.789 183.729 125.102 183.534C121.413 183.355 117.725 183.151 114.04 182.781Z" fill="#6EACCE"/>
<path d="M153.85 199.819C158.629 199.819 162.503 195.931 162.503 191.136C162.503 186.341 158.629 182.453 153.85 182.453C149.071 182.453 145.197 186.341 145.197 191.136C145.197 195.931 149.071 199.819 153.85 199.819Z" fill="#FF8383"/>
<path d="M149.375 186.974C148.295 186.599 147.723 185.417 148.097 184.333L149.019 181.657C149.393 180.574 150.572 180 151.651 180.374C152.731 180.749 153.304 181.931 152.93 183.015L152.007 185.691C151.634 186.774 150.455 187.349 149.375 186.974Z" fill="#FF8383"/>
<path d="M165.943 188.112L158.264 188.828C157.075 188.939 156.02 188.062 155.91 186.868C155.799 185.675 156.674 184.616 157.864 184.505L165.542 183.789C166.732 183.678 167.786 184.555 167.897 185.749C168.007 186.942 167.133 188 165.943 188.112Z" fill="#FF8383"/>
<path d="M164.317 195.196L156.621 194.698C155.429 194.621 154.524 193.589 154.601 192.392C154.678 191.197 155.707 190.288 156.899 190.366L164.595 190.864C165.787 190.941 166.692 191.973 166.614 193.17C166.537 194.366 165.508 195.273 164.317 195.196Z" fill="#FF8383"/>
<path d="M242.576 168.864C242.346 168.864 242.115 168.776 241.939 168.599C241.587 168.246 241.587 167.672 241.939 167.319L250.555 158.671C250.905 158.318 251.478 158.318 251.83 158.671C252.183 159.024 252.183 159.598 251.83 159.951L243.214 168.599C243.04 168.775 242.807 168.864 242.576 168.864Z" fill="#445EEA"/>
<path d="M236.442 163.559C235.943 163.559 235.539 163.154 235.539 162.654V150.427C235.539 149.927 235.943 149.521 236.442 149.521C236.939 149.521 237.344 149.927 237.344 150.427V162.654C237.344 163.154 236.939 163.559 236.442 163.559Z" fill="#445EEA"/>
<path d="M260.049 175.021H247.863C247.365 175.021 246.961 174.616 246.961 174.116C246.961 173.616 247.365 173.211 247.863 173.211H260.049C260.548 173.211 260.951 173.616 260.951 174.116C260.951 174.616 260.548 175.021 260.049 175.021Z" fill="#445EEA"/>
<path d="M151.818 213.056H226.375C228.454 213.056 229.095 211.365 229.095 209.277H148.051C148.051 211.365 149.737 213.056 151.818 213.056Z" fill="#6EACCE"/>
<path d="M147.493 209.277H173.921C173.921 211.365 172.007 213.056 169.644 213.056H152.325C152.301 213.056 147.404 213.056 147.38 213.056C144.944 213.021 145.056 209.277 147.493 209.277Z" fill="#6EACCE"/>
<path d="M175.571 210.377H229.096C230.684 210.377 232.052 209.241 232.347 207.675L239.56 176.611C239.949 174.565 238.385 172.67 236.309 172.67H182.786C181.194 172.67 179.83 173.806 179.533 175.373L172.32 206.436C171.933 208.482 173.495 210.377 175.571 210.377Z" fill="#E0EEF7"/>
<path d="M179.534 175.372C179.694 174.511 180.185 173.781 180.854 173.297C181.854 174.022 182.428 175.281 182.174 176.611L174.962 207.675C174.799 208.537 174.312 209.264 173.643 209.748C172.643 209.024 172.069 207.763 172.321 206.435L179.534 175.372Z" fill="#6EACCE"/>
<path d="M213.196 195.486H204.418C202.618 195.486 201.158 194.022 201.158 192.215C201.158 190.408 202.618 188.943 204.418 188.943H213.196C214.997 188.943 216.456 190.408 216.456 192.215C216.456 194.022 214.997 195.486 213.196 195.486Z" fill="white"/>
<path d="M155.473 210.319H152.839C152.32 210.319 151.898 209.897 151.898 209.376C151.898 208.855 152.319 208.432 152.839 208.432H155.473C155.992 208.432 156.413 208.854 156.413 209.376C156.413 209.897 155.992 210.319 155.473 210.319Z" fill="#6EACCE"/>
<path d="M160.614 210.319H157.981C157.462 210.319 157.04 209.897 157.04 209.376C157.04 208.855 157.461 208.432 157.981 208.432H160.614C161.133 208.432 161.555 208.854 161.555 209.376C161.555 209.897 161.133 210.319 160.614 210.319Z" fill="#6EACCE"/>
<path d="M165.755 210.319H163.122C162.603 210.319 162.182 209.897 162.182 209.376C162.182 208.855 162.602 208.432 163.122 208.432H165.755C166.275 208.432 166.696 208.854 166.696 209.376C166.696 209.897 166.275 210.319 165.755 210.319Z" fill="#6EACCE"/>
<path d="M170.897 210.319H168.264C167.744 210.319 167.323 209.897 167.323 209.376C167.323 208.855 167.744 208.432 168.264 208.432H170.897C171.416 208.432 171.837 208.854 171.837 209.376C171.837 209.897 171.416 210.319 170.897 210.319Z" fill="#6EACCE"/>
<path d="M268.998 217.381H43.7818C42.5347 217.381 41.5244 216.368 41.5244 215.117C41.5244 213.866 42.5347 212.852 43.7818 212.852H268.998C270.245 212.852 271.255 213.866 271.255 215.117C271.255 216.368 270.245 217.381 268.998 217.381Z" fill="#1B2A67"/>
<path d="M77.4942 198.925C77.4942 198.925 75.8365 186.428 72.835 183.355" stroke="#1B2A67" stroke-width="0.8269" stroke-miterlimit="10" stroke-linecap="round"/>
<path d="M73.3191 175.92C74.1214 178.583 73.9573 180.989 72.9533 181.294C71.9494 181.598 70.4852 179.686 69.6834 177.022C69.6753 176.995 69.6678 176.969 69.6598 176.942C68.9801 174.569 72.5513 173.487 73.2949 175.84C73.3035 175.867 73.3116 175.894 73.3191 175.92Z" fill="#FFD2D4"/>
<path d="M78.0821 181.871C75.4284 182.676 73.03 182.511 72.727 181.504C72.424 180.497 74.3294 179.027 76.9836 178.223C77.0101 178.214 77.0366 178.207 77.0637 178.199C79.4276 177.517 80.507 181.101 78.1615 181.847C78.135 181.855 78.1085 181.864 78.0821 181.871Z" fill="#FFD2D4"/>
<path d="M69.0022 184.624C71.6564 183.819 73.5619 182.35 73.2589 181.342C72.9559 180.335 70.5586 180.171 67.9044 180.975C67.8773 180.983 67.8508 180.991 67.8249 181C65.48 181.746 66.5583 185.329 68.9228 184.647C68.9493 184.64 68.9757 184.632 69.0022 184.624Z" fill="#FFD2D4"/>
<path d="M73.4706 187.653C74.2165 184.974 74.0028 182.572 72.9925 182.289C71.9822 182.006 70.5583 183.948 69.8124 186.628C69.8049 186.655 69.798 186.682 69.7905 186.709C69.1609 189.096 72.7534 190.102 73.4475 187.734C73.4556 187.707 73.4631 187.681 73.4706 187.653Z" fill="#FFD2D4"/>
<path d="M76.0327 186.876C73.9326 185.06 72.7858 182.941 73.4707 182.144C74.155 181.346 76.4129 182.173 78.513 183.989C78.5337 184.008 78.5545 184.026 78.5752 184.045C80.4161 185.682 77.9808 188.516 76.0955 186.93C76.0748 186.912 76.0535 186.894 76.0327 186.876Z" fill="#FFD2D4"/>
<path d="M72.9624 183.322C73.6794 183.322 74.2607 182.739 74.2607 182.02C74.2607 181.3 73.6794 180.717 72.9624 180.717C72.2453 180.717 71.6641 181.3 71.6641 182.02C71.6641 182.739 72.2453 183.322 72.9624 183.322Z" fill="#D15E79"/>
<path d="M72.5989 190.892C76.0468 193.618 78.0098 196.889 76.9817 198.198C75.9541 199.507 72.3253 198.358 68.8773 195.632C65.4294 192.906 64.4951 188.326 64.4951 188.326C64.4951 188.326 69.1509 188.165 72.5989 190.892Z" fill="#445EEA"/>
<path d="M84.7099 195.019C81.0708 198.449 77.0716 200.109 75.7785 198.728C74.4854 197.346 76.3879 193.446 80.0276 190.016C83.6674 186.586 88.9591 186.307 88.9591 186.307C88.9591 186.307 88.3497 191.588 84.7099 195.019Z" fill="#445EEA"/>
<path d="M82.033 213.607H70.1236L68.0391 198.572H84.117L82.033 213.607Z" fill="#1B2A67"/>
<path d="M84.7402 202.428H67.4165C66.9487 202.428 66.5703 202.047 66.5703 201.579V197.687C66.5703 197.218 66.9487 196.838 67.4165 196.838H84.7402C85.2079 196.838 85.5864 197.218 85.5864 197.687V201.579C85.5864 202.047 85.2079 202.428 84.7402 202.428Z" fill="#1B2A67"/>
<path d="M112.413 86.1891L118.319 92.5448L163.335 73.7031L112.413 86.1891Z" fill="#445EEA"/>
<path d="M114.513 65.2168L110.067 71.9476L113.073 78.5437L106.329 79.6945L100.37 92.8232L164.78 73.2649L114.513 65.2168Z" fill="#91A8F6"/>
<path d="M113.074 78.5434L110.067 71.9473L144.955 73.5842L113.074 78.5434Z" fill="#445EEA"/>
<path d="M109.683 143.776C109.188 143.776 108.691 143.773 108.196 143.767C107.696 143.761 107.297 143.351 107.304 142.851C107.31 142.352 107.74 141.898 108.216 141.956C110.555 141.982 112.875 141.945 115.421 141.838C115.435 141.838 115.448 141.838 115.459 141.838C115.941 141.838 116.341 142.218 116.361 142.706C116.382 143.205 115.996 143.629 115.497 143.649C113.458 143.735 111.555 143.776 109.683 143.776ZM100.962 143.419C100.935 143.419 100.908 143.419 100.882 143.417C98.3959 143.203 95.9491 142.882 93.6111 142.465C93.1198 142.378 92.7938 141.907 92.8802 141.414C92.9683 140.922 93.4389 140.609 93.9279 140.681C96.2117 141.089 98.6039 141.402 101.037 141.611C101.534 141.654 101.901 142.092 101.859 142.592C101.82 143.064 101.424 143.419 100.962 143.419ZM86.7141 140.805C86.6277 140.805 86.5378 140.792 86.4497 140.764C84.0749 140.034 81.7588 139.142 79.5682 138.11C79.1172 137.897 78.9231 137.357 79.1345 136.905C79.3459 136.449 79.8885 136.257 80.3355 136.47C82.45 137.465 84.6854 138.327 86.979 139.033C87.4548 139.179 87.7238 139.685 87.5769 140.164C87.4577 140.553 87.1006 140.805 86.7141 140.805ZM73.6389 134.625C73.4667 134.625 73.2933 134.576 73.1389 134.473C71.0936 133.103 69.1392 131.563 67.33 129.894C66.9625 129.556 66.9389 128.983 67.277 128.614C67.6151 128.245 68.1882 128.223 68.5528 128.561C70.2929 130.165 72.1735 131.647 74.1412 132.965C74.5559 133.242 74.6671 133.806 74.3912 134.222C74.2178 134.484 73.9309 134.625 73.6389 134.625ZM62.999 124.814C62.7346 124.814 62.4714 124.698 62.2917 124.474C60.7578 122.539 59.3633 120.475 58.148 118.335C57.9009 117.901 58.0529 117.347 58.4861 117.099C58.9198 116.856 59.471 117.005 59.7181 117.438C60.8874 119.495 62.2289 121.483 63.7064 123.344C64.0162 123.737 63.9517 124.306 63.5624 124.618C63.3959 124.751 63.1977 124.814 62.999 124.814ZM55.8486 112.212C55.484 112.212 55.1407 111.988 55.0036 111.625C54.1217 109.276 53.438 106.874 52.9743 104.485C52.8787 103.993 53.1978 103.517 53.6868 103.421C54.1805 103.319 54.6511 103.645 54.7467 104.136C55.1914 106.426 55.8468 108.731 56.6936 110.984C56.8698 111.453 56.6337 111.975 56.1677 112.152C56.0617 112.193 55.9546 112.212 55.8486 112.212ZM52.968 97.9967C52.4968 97.9967 52.0994 97.6279 52.0689 97.1488C51.9744 95.6679 51.9277 94.1096 51.9277 92.5184V92.1514C51.9306 91.3641 51.945 90.5752 51.9704 89.7845C51.9859 89.2949 52.3862 88.9082 52.8724 88.9082C52.881 88.9082 52.8914 88.9082 52.9018 88.9082C53.3994 88.9244 53.7911 89.3434 53.775 89.8434C53.7496 90.6162 53.7352 91.3872 53.7323 92.1543V92.5184C53.7323 94.0726 53.779 95.5916 53.87 97.0337C53.9028 97.5337 53.5244 97.9643 53.0267 97.9955C53.0083 97.9967 52.9887 97.9967 52.968 97.9967Z" fill="#445EEA"/>
<path d="M60.5596 83.6298C59.1812 83.6298 57.8236 83.6136 56.4907 83.5801C55.9931 83.568 55.5991 83.1524 55.6123 82.6513C55.6244 82.1588 56.027 81.7692 56.5143 81.7692C56.5218 81.7692 56.5287 81.7692 56.5379 81.7692C58.869 81.8282 61.2715 81.834 63.75 81.7883C64.3116 81.7588 64.6613 82.1761 64.6705 82.6761C64.6809 83.1772 64.2834 83.5905 63.7858 83.5992C62.6965 83.6194 61.6211 83.6298 60.5596 83.6298ZM71.0151 83.3258C70.5405 83.3258 70.1419 82.9524 70.116 82.4709C70.0878 81.9727 70.4679 81.5444 70.9667 81.5166C73.3018 81.3843 75.7268 81.2086 78.1748 80.9918C78.6587 80.9404 79.1108 81.3161 79.1534 81.8143C79.1978 82.3125 78.8297 82.7524 78.3332 82.7963C75.8662 83.0148 73.4228 83.1934 71.067 83.3246C71.0508 83.3258 71.0336 83.3258 71.0151 83.3258ZM49.2706 83.2108C49.2475 83.2108 49.2239 83.2108 49.1986 83.2096C46.686 83.0137 44.2409 82.7449 41.9306 82.4137C41.437 82.3426 41.0948 81.8842 41.1651 81.3889C41.2354 80.8953 41.7031 80.5601 42.1863 80.6207C44.4581 80.9467 46.8652 81.2109 49.3397 81.4022C49.8362 81.4421 50.2083 81.8773 50.1697 82.3773C50.1334 82.8512 49.7371 83.2108 49.2706 83.2108ZM85.4681 82.0536C85.0171 82.0536 84.626 81.7143 84.573 81.2531C84.5137 80.756 84.8702 80.3063 85.365 80.2491C87.7105 79.9728 90.1015 79.6618 92.5362 79.3139C93.031 79.2359 93.4883 79.5884 93.5575 80.082C93.6277 80.5774 93.285 81.0363 92.792 81.1068C90.3388 81.4577 87.9334 81.7721 85.5735 82.0478C85.5384 82.0519 85.5038 82.0536 85.4681 82.0536ZM34.9212 81.1242C34.855 81.1242 34.7893 81.1167 34.7225 81.1022C32.9767 80.7086 31.2752 80.2658 29.6658 79.7855C28.9815 79.5803 28.3082 79.3665 27.6452 79.1468C27.1723 78.9902 26.9148 78.4775 27.0721 78.003C27.2282 77.5279 27.7391 77.2654 28.2126 77.4279C28.8577 77.6417 29.5132 77.8498 30.1802 78.0486C31.7515 78.5174 33.4115 78.9497 35.1159 79.333C35.6038 79.4434 35.9097 79.9271 35.8008 80.4156C35.7063 80.8369 35.3342 81.1242 34.9212 81.1242ZM21.2078 76.4701C21.0759 76.4701 20.9406 76.4406 20.8139 76.3788C18.5018 75.254 16.3585 73.9853 14.4404 72.6097C14.0355 72.3178 13.941 71.7531 14.2308 71.3456C14.5188 70.9387 15.0827 70.8416 15.4905 71.1346C17.3267 72.4513 19.3831 73.668 21.6018 74.7471C22.0499 74.9656 22.2377 75.5083 22.0212 75.958C21.8645 76.2817 21.5425 76.4701 21.2078 76.4701ZM52.2882 75.6609C51.79 75.6609 51.3862 75.2552 51.3862 74.7558V74.4344C51.3862 72.1501 51.2952 69.8289 51.1143 67.5342C51.0763 67.036 51.4473 66.599 51.9443 66.5592C52.423 66.5152 52.874 66.8927 52.9155 67.3921C53.0975 69.7324 53.1908 72.1022 53.1908 74.4338V74.7552C53.1902 75.2552 52.7859 75.6609 52.2882 75.6609ZM9.5352 67.9781C9.29098 67.9781 9.0456 67.8793 8.86819 67.6834C7.17648 65.8239 5.71574 63.7801 4.52861 61.6092C4.28957 61.1699 4.44912 60.6196 4.88573 60.378C5.32695 60.1393 5.87357 60.3029 6.11318 60.7364C7.22947 62.7819 8.60669 64.7078 10.2028 66.462C10.5392 66.8308 10.5127 67.4042 10.144 67.7423C9.97008 67.9001 9.75293 67.9781 9.5352 67.9781ZM51.1253 61.1329C50.6933 61.1329 50.3131 60.8219 50.2365 60.3809C49.8172 57.9169 49.2815 55.5615 48.6416 53.3796C48.501 52.8999 48.7735 52.3958 49.2533 52.256C49.7337 52.1086 50.2336 52.3883 50.373 52.8698C51.0331 55.1188 51.5849 57.5429 52.0169 60.0746C52.101 60.5682 51.7698 61.0364 51.2796 61.1219C51.2272 61.13 51.1771 61.1329 51.1253 61.1329ZM2.61226 55.3448C2.2154 55.3448 1.85251 55.0806 1.74192 54.6801C1.63075 54.2732 1.52592 53.8628 1.42742 53.449C1.10717 52.0866 0.945312 50.7358 0.945312 49.4336C0.945312 48.6516 1.00291 47.8701 1.11869 47.1095C1.19415 46.6141 1.6607 46.2719 2.1457 46.35C2.63933 46.4234 2.97744 46.8869 2.90256 47.3805C2.80119 48.0516 2.74935 48.7417 2.74935 49.4336C2.74935 50.5954 2.8968 51.8063 3.1848 53.0316C3.27696 53.4235 3.37546 53.8131 3.48144 54.1963C3.61507 54.6801 3.33283 55.1783 2.85245 55.3113C2.77239 55.3332 2.69175 55.3448 2.61226 55.3448ZM46.9401 47.2198C46.6037 47.2198 46.2817 47.0297 46.1262 46.7049C45.0473 44.446 43.8014 42.4288 42.4213 40.7093C42.1097 40.3197 42.1696 39.7492 42.559 39.4348C42.9426 39.1238 43.5111 39.1799 43.8291 39.5735C45.2938 41.4005 46.6152 43.5368 47.7534 45.9199C47.9694 46.3708 47.7799 46.9124 47.3306 47.1291C47.2044 47.1904 47.0708 47.2198 46.9401 47.2198ZM4.85347 41.541C4.66224 41.541 4.46986 41.482 4.30685 41.3566C3.91056 41.0532 3.83395 40.4856 4.13463 40.0873C5.58384 38.1776 7.48521 36.4904 9.78749 35.0749C10.2155 34.8154 10.7707 34.9495 11.0293 35.3743C11.2891 35.8003 11.1561 36.3592 10.731 36.6205C8.61878 37.9181 6.88329 39.4544 5.57117 41.1844C5.39433 41.4185 5.12535 41.541 4.85347 41.541ZM37.8087 36.1546C37.64 36.1546 37.4677 36.1072 37.3151 36.0072C35.4022 34.7478 33.2722 33.8235 30.9877 33.2588C30.5039 33.138 30.2078 32.6485 30.3265 32.1618C30.4457 31.678 30.9371 31.3815 31.4197 31.4982C33.9035 32.1132 36.2207 33.1207 38.3058 34.4917C38.7234 34.7663 38.8392 35.3281 38.5662 35.7465C38.3922 36.0113 38.1042 36.1546 37.8087 36.1546ZM16.8919 33.8449C16.5008 33.8449 16.1425 33.5883 16.0261 33.1947C15.8856 32.7138 16.158 32.2109 16.6367 32.0699C18.9125 31.3959 21.3012 30.9636 23.7342 30.7821L24.006 30.7734C24.4513 30.7954 24.9173 31.1613 24.9259 31.6612C24.9369 32.1612 24.5394 32.5756 24.0418 32.5843L23.8448 32.5918C21.5621 32.7612 19.3007 33.1698 17.1482 33.8074C17.0618 33.8316 16.9754 33.8449 16.8919 33.8449Z" fill="#445EEA"/>
<path d="M234.129 40.0137H282.388C288.421 40.0137 293.312 44.9209 293.312 50.9743V75.952C293.312 82.006 288.421 86.9132 282.388 86.9132H250.831L239.48 96.9629V86.9132H234.129C228.096 86.9132 223.206 82.006 223.206 75.952V50.9743C223.206 44.9215 228.096 40.0137 234.129 40.0137Z" fill="#445EEA"/>
<path d="M241.149 55.4724H275.368C276.124 55.4724 276.736 54.8569 276.736 54.0985C276.736 53.3396 276.124 52.7246 275.368 52.7246H241.149C240.393 52.7246 239.78 53.3402 239.78 54.0985C239.78 54.8569 240.393 55.4724 241.149 55.4724Z" fill="#91A8F6"/>
<path d="M241.149 64.6287H275.368C276.124 64.6287 276.736 64.0131 276.736 63.2548C276.736 62.4964 276.124 61.8809 275.368 61.8809H241.149C240.393 61.8809 239.78 62.4958 239.78 63.2548C239.78 64.0137 240.393 64.6287 241.149 64.6287Z" fill="#91A8F6"/>
<path d="M270.35 73.7869H275.368C276.125 73.7869 276.737 73.1713 276.737 72.413C276.737 71.6546 276.125 71.0391 275.368 71.0391H270.35C269.593 71.0391 268.98 71.6541 268.98 72.413C268.98 73.1719 269.593 73.7869 270.35 73.7869Z" fill="#91A8F6"/>
<path d="M258.943 73.7869H263.962C264.718 73.7869 265.331 73.1713 265.331 72.413C265.331 71.6546 264.718 71.0391 263.962 71.0391H258.943C258.187 71.0391 257.574 71.6541 257.574 72.413C257.574 73.1719 258.188 73.7869 258.943 73.7869Z" fill="#91A8F6"/>
<path d="M241.149 73.7869H252.555C253.312 73.7869 253.925 73.1713 253.925 72.413C253.925 71.6546 253.312 71.0391 252.555 71.0391H241.149C240.393 71.0391 239.78 71.6541 239.78 72.413C239.78 73.1719 240.393 73.7869 241.149 73.7869Z" fill="#91A8F6"/>
<path d="M228.025 89.8945H191.083C187.45 89.8945 184.506 92.8498 184.506 96.4953V117.871C184.506 121.354 187.194 124.2 190.602 124.448L182.984 136.974L203.06 124.473H228.025C231.658 124.473 234.603 121.517 234.603 117.871V96.4953C234.603 92.8498 231.658 89.8945 228.025 89.8945Z" fill="#91A8F6"/>
<path d="M209.554 106.385C211.97 106.385 213.928 104.42 213.928 101.996C213.928 99.5723 211.97 97.6074 209.554 97.6074C207.139 97.6074 205.181 99.5723 205.181 101.996C205.181 104.42 207.139 106.385 209.554 106.385Z" fill="#445EEA" stroke="#445EEA" stroke-width="2.7611" stroke-miterlimit="10" stroke-linecap="round" stroke-linejoin="round"/>
<path d="M219.892 116.759H199.217C199.217 113.086 202.183 110.109 205.844 110.109H213.265C216.925 110.109 219.892 113.087 219.892 116.759Z" fill="#445EEA" stroke="#445EEA" stroke-width="2.7611" stroke-miterlimit="10" stroke-linecap="round" stroke-linejoin="round"/>
<path d="M183.434 55.1309C182.211 55.1309 180.985 55.0054 179.794 54.7592C179.305 54.6575 178.991 54.1783 179.091 53.6887C179.193 53.1957 179.68 52.8952 180.159 52.9836C182.015 53.3685 183.969 53.42 185.827 53.1414C186.32 53.072 186.779 53.4096 186.854 53.9038C186.927 54.3991 186.587 54.8592 186.094 54.9349C185.222 55.0644 184.327 55.1309 183.434 55.1309ZM191.63 53.0148C191.311 53.0148 191.004 52.8454 190.837 52.5472C190.596 52.1096 190.755 51.5577 191.19 51.3143C192.859 50.3884 194.338 49.1809 195.589 47.7255C195.913 47.3464 196.485 47.3053 196.861 47.6313C197.238 47.9567 197.281 48.5295 196.955 48.9081C195.566 50.5259 193.92 51.8692 192.066 52.9015C191.926 52.9778 191.777 53.0148 191.63 53.0148ZM174.421 52.5281C174.258 52.5281 174.091 52.4836 173.943 52.3894C172.147 51.2554 170.579 49.8225 169.281 48.1307C168.977 47.7336 169.051 47.1649 169.446 46.8597C169.842 46.5556 170.409 46.6296 170.712 47.025C171.879 48.5469 173.29 49.8358 174.903 50.856C175.326 51.123 175.452 51.6819 175.187 52.105C175.015 52.379 174.721 52.5281 174.421 52.5281ZM199.316 44.0506C199.212 44.0506 199.106 44.0315 199.002 43.9928C198.534 43.8188 198.296 43.2969 198.47 42.8281C199.13 41.041 199.467 39.1578 199.467 37.2302C199.467 36.7302 199.871 36.325 200.369 36.325C200.867 36.325 201.271 36.7308 201.271 37.2302C201.271 39.3728 200.898 41.4698 200.161 43.4587C200.028 43.8234 199.682 44.0506 199.316 44.0506ZM167.247 43.1512C166.861 43.1512 166.503 42.9004 166.385 42.5114C165.862 40.8086 165.597 39.033 165.596 37.2325C165.596 36.895 165.605 36.5614 165.624 36.2297C165.652 35.7297 166.104 35.3569 166.575 35.3771C167.073 35.4049 167.454 35.8332 167.425 36.3326C167.41 36.6291 167.4 36.9296 167.4 37.2308C167.402 38.8515 167.642 40.4485 168.11 41.9773C168.257 42.4553 167.99 42.9622 167.513 43.1096C167.425 43.1379 167.335 43.1512 167.247 43.1512ZM199.873 34.0379C199.468 34.0379 199.099 33.7622 198.997 33.3495C198.537 31.4901 197.758 29.7457 196.678 28.1614C196.397 27.7487 196.502 27.184 196.913 26.9019C197.323 26.6158 197.886 26.7233 198.168 27.1377C199.371 28.9012 200.239 30.8439 200.749 32.9125C200.869 33.3992 200.574 33.8899 200.09 34.0096C200.017 34.0287 199.944 34.0379 199.873 34.0379ZM167.905 31.3421C167.785 31.3421 167.661 31.3173 167.544 31.2652C167.087 31.0647 166.878 30.5306 167.078 30.0722C167.926 28.1215 169.106 26.3505 170.584 24.8136C170.928 24.4495 171.501 24.4419 171.86 24.7899C172.22 25.1367 172.23 25.7101 171.883 26.0696C170.554 27.4528 169.495 29.0428 168.733 30.7976C168.585 31.1387 168.254 31.3421 167.905 31.3421ZM193.225 24.2685C193.044 24.2685 192.862 24.2154 192.703 24.1021C191.148 22.9917 189.423 22.1779 187.578 21.6837C187.096 21.5537 186.81 21.0572 186.938 20.5751C187.069 20.0931 187.557 19.8041 188.043 19.9324C190.097 20.4826 192.017 21.3895 193.75 22.6253C194.157 22.9155 194.251 23.4802 193.963 23.8888C193.787 24.1373 193.509 24.2685 193.225 24.2685ZM176.079 22.8247C175.744 22.8247 175.422 22.6357 175.267 22.3114C175.049 21.86 175.237 21.319 175.687 21.1023C177.597 20.1763 179.641 19.607 181.762 19.4081C182.242 19.3625 182.698 19.7284 182.745 20.2266C182.79 20.7248 182.426 21.1658 181.929 21.2132C180.025 21.3918 178.188 21.9034 176.471 22.7334C176.345 22.7952 176.211 22.8247 176.079 22.8247Z" fill="#445EEA"/>
<path d="M183.434 28.625C176.897 28.625 171.599 32.1398 171.599 36.476C171.599 36.4835 171.599 36.491 171.599 36.4985C171.604 37.6302 172.494 38.4065 173.326 38.0499L176.432 36.7199C177.18 36.3997 177.543 35.3073 177.207 34.3871L176.825 33.3415C176.825 33.3415 182.534 34.3622 189.999 33.3415L189.614 34.683C189.37 35.5327 189.686 36.4794 190.332 36.8332L193.405 38.5163C194.152 38.9255 195.025 38.3764 195.196 37.3522C195.244 37.0644 195.269 36.7719 195.269 36.4754C195.269 32.1398 189.97 28.625 183.434 28.625Z" fill="#445EEA"/>
<path d="M191.632 45.8359H175.229L177.659 38.1941C178.115 36.7613 179.441 35.7891 180.94 35.7891H185.92C187.42 35.7891 188.746 36.7618 189.202 38.1941L191.632 45.8359Z" fill="#91A8F6"/>
<path d="M289.155 148.215C287.926 148.215 286.701 148.089 285.51 147.841C285.023 147.738 284.708 147.259 284.809 146.77C284.912 146.28 285.397 145.972 285.877 146.066C287.728 146.454 289.694 146.504 291.544 146.224C292.038 146.156 292.496 146.491 292.571 146.986C292.645 147.481 292.305 147.941 291.812 148.017C290.945 148.147 290.05 148.213 289.155 148.215ZM297.349 146.1C297.03 146.1 296.723 145.931 296.559 145.632C296.316 145.194 296.473 144.643 296.909 144.401C298.579 143.472 300.059 142.265 301.308 140.811C301.633 140.431 302.203 140.389 302.581 140.716C302.958 141.042 303.001 141.614 302.675 141.993C301.288 143.609 299.641 144.953 297.786 145.985C297.646 146.063 297.496 146.1 297.349 146.1ZM280.143 145.612C279.98 145.612 279.812 145.568 279.663 145.473C277.868 144.338 276.3 142.905 275.004 141.215C274.699 140.818 274.773 140.249 275.168 139.944C275.565 139.64 276.131 139.714 276.435 140.109C277.6 141.631 279.011 142.92 280.624 143.94C281.047 144.207 281.174 144.766 280.908 145.189C280.737 145.463 280.442 145.612 280.143 145.612ZM305.036 137.136C304.931 137.136 304.826 137.117 304.721 137.078C304.254 136.904 304.016 136.382 304.19 135.913C304.85 134.125 305.187 132.242 305.187 130.315C305.187 129.815 305.591 129.41 306.089 129.41C306.587 129.41 306.991 129.815 306.991 130.315C306.991 132.458 306.618 134.555 305.881 136.544C305.748 136.91 305.402 137.136 305.036 137.136ZM272.966 136.233C272.579 136.233 272.222 135.983 272.103 135.594C271.58 133.891 271.315 132.115 271.315 130.316C271.315 129.98 271.324 129.647 271.343 129.315C271.371 128.815 271.863 128.435 272.294 128.461C272.792 128.489 273.172 128.917 273.145 129.415C273.129 129.715 273.12 130.015 273.12 130.316C273.12 131.934 273.358 133.531 273.828 135.06C273.975 135.538 273.708 136.045 273.232 136.192C273.143 136.22 273.053 136.233 272.966 136.233ZM305.596 127.124C305.191 127.124 304.821 126.847 304.72 126.435C304.26 124.577 303.48 122.833 302.401 121.248C302.119 120.836 302.225 120.271 302.636 119.989C303.048 119.703 303.609 119.812 303.891 120.225C305.093 121.987 305.962 123.931 306.472 125.998C306.592 126.483 306.297 126.975 305.813 127.095C305.74 127.114 305.666 127.124 305.596 127.124ZM273.626 124.426C273.506 124.426 273.383 124.401 273.265 124.35C272.808 124.149 272.599 123.615 272.799 123.157C273.65 121.204 274.83 119.435 276.307 117.898C276.651 117.532 277.224 117.526 277.582 117.874C277.942 118.221 277.953 118.795 277.606 119.155C276.279 120.537 275.218 122.128 274.453 123.882C274.305 124.223 273.974 124.426 273.626 124.426ZM298.948 117.357C298.768 117.357 298.585 117.303 298.426 117.19C296.867 116.077 295.142 115.262 293.301 114.77C292.819 114.64 292.532 114.143 292.66 113.661C292.79 113.179 293.281 112.896 293.766 113.018C295.817 113.568 297.738 114.475 299.473 115.712C299.88 116.003 299.974 116.567 299.686 116.976C299.509 117.226 299.231 117.357 298.948 117.357ZM281.802 115.908C281.467 115.908 281.145 115.719 280.989 115.394C280.772 114.943 280.959 114.402 281.409 114.185C283.321 113.259 285.366 112.69 287.485 112.492C287.994 112.446 288.423 112.815 288.469 113.31C288.514 113.809 288.148 114.251 287.653 114.297C285.749 114.474 283.912 114.984 282.194 115.816C282.068 115.878 281.934 115.908 281.802 115.908Z" fill="#445EEA"/>
<path d="M299.511 127.092H278.516V139.039H299.511V127.092Z" fill="#91A8F6"/>
<path d="M296.632 126.143V124.681C296.632 123.605 297.502 122.732 298.574 122.732C299.646 122.732 300.516 123.605 300.516 124.681V127.105H296.632" fill="#445EEA"/>
<path d="M296.67 124.654V137.071H282.355V124.654C282.355 123.578 283.225 122.705 284.297 122.705H298.45L298.057 122.787C297.255 123.027 296.67 123.771 296.67 124.654Z" fill="#E0EEF7"/>
<path d="M286.42 124.727H283.246V127.996H286.42V124.727Z" fill="#445EEA"/>
<path d="M287.393 124.707H295.461" stroke="#445EEA" stroke-width="0.6576" stroke-miterlimit="10" stroke-linecap="round" stroke-linejoin="round"/>
<path d="M287.393 125.809H295.461" stroke="#445EEA" stroke-width="0.6576" stroke-miterlimit="10" stroke-linecap="round" stroke-linejoin="round"/>
<path d="M287.393 126.91H295.461" stroke="#445EEA" stroke-width="0.6576" stroke-miterlimit="10" stroke-linecap="round" stroke-linejoin="round"/>
<path d="M287.468 128.01H295.537" stroke="#445EEA" stroke-width="0.6576" stroke-miterlimit="10" stroke-linecap="round" stroke-linejoin="round"/>
<path d="M283.246 129.096H295.461" stroke="#445EEA" stroke-width="0.6576" stroke-miterlimit="10" stroke-linecap="round" stroke-linejoin="round"/>
<path d="M283.246 130.197H295.461" stroke="#445EEA" stroke-width="0.6576" stroke-miterlimit="10" stroke-linecap="round" stroke-linejoin="round"/>
<path d="M283.246 131.275H295.461" stroke="#445EEA" stroke-width="0.6576" stroke-miterlimit="10" stroke-linecap="round" stroke-linejoin="round"/>
<path d="M283.246 132.377H289.183" stroke="#445EEA" stroke-width="0.6576" stroke-miterlimit="10" stroke-linecap="round" stroke-linejoin="round"/>
<path d="M294.353 139.039H278.516V127.092L294.353 139.039Z" fill="#445EEA"/>
<path d="M283.673 139.039H299.511V127.092L283.673 139.039Z" fill="#445EEA"/>
<path d="M299.511 139.039H289.013H278.515L287.944 133.985C288.587 133.539 289.438 133.539 290.081 133.985L299.511 139.039Z" fill="#445EEA"/>
</svg>
